# xmcd CD database file
#
# Track frame offsets:
#	150
#	29045
#	66505
#	97163
#	129077
#	156252
#	192887
#	220383
#
# Disc length: 3481 seconds
#
# Revision: 0
# Processed by: cddbd v1.5.1PL2 Copyright (c) Steve Scherf et al.
# Submitted via: CDex 1.51
#
DISCID=780d9708
DTITLE=Pius Baschnagel Influences - Motions and Emotions
DYEAR=2005
DGENRE=Jazz
TTITLE0=The Suhner - The Better
TTITLE1=Waltz For Daddy
TTITLE2=The Days Of Wine And Roses
TTITLE3=When I Fall In Love
TTITLE4=The Song Is You
TTITLE5=Opus Marco
TTITLE6=Diida
TTITLE7=Jesolo
EXTD=YEAR: 2005
EXTT0=
EXTT1=
EXTT2=
EXTT3=
EXTT4=
EXTT5=
EXTT6=
EXTT7=
PLAYORDER=
